<svg id="blog" xmlns="http://www.w3.org/2000/svg" width="45.366" height="45.366" viewBox="0 0 45.366 45.366">
  <path id="Path_507" data-name="Path 507" d="M284.681,67.459l-5.639-5.639-10.5,10.587,5.64,5.639Zm0,0" transform="translate(-244.793 -56.343)" fill="#f29549"/>
  <path id="Path_508" data-name="Path 508" d="M210.437,212.836a1.329,1.329,0,0,0,1.74,1.738l6.75-3.492-5-5Zm0,0" transform="translate(-191.739 -187.821)" fill="#f29549"/>
  <path id="Path_509" data-name="Path 509" d="M417.1,6.028a1.329,1.329,0,0,0,0-1.88L413.342.389a1.329,1.329,0,0,0-1.88,0L408.253,3.6l5.638,5.639Zm0,0" transform="translate(-372.124 0)" fill="#f29549"/>
  <path id="Path_510" data-name="Path 510" d="M4.487,147.581H5.816v6.734a1.329,1.329,0,0,0,2.269.94l7.674-7.674H31.246a3.992,3.992,0,0,0,3.987-3.987V130.4l-4.193,4.193a3.95,3.95,0,0,1-1.272.855l-7.61,3.946a4.2,4.2,0,0,1-1.741.4,3.927,3.927,0,0,1-1.146-.188H9.8a1.329,1.329,0,1,1,0-2.658h6.73a3.979,3.979,0,0,1,.212-2.678l4.1-7.966a3.634,3.634,0,0,1,.77-1.088L25.835,121H4.487A3.992,3.992,0,0,0,.5,124.987v18.607a3.992,3.992,0,0,0,3.987,3.987Zm0,0" transform="translate(-0.5 -110.278)" fill="#f29549"/>
</svg>
