<svg xmlns="http://www.w3.org/2000/svg" width="46.894" height="46.894" viewBox="0 0 46.894 46.894">
  <path id="settings_1_" data-name="settings (1)" d="M45.791,18.108l-3.6-.784a19.615,19.615,0,0,0-1.16-2.8l2-3.1a1.4,1.4,0,0,0-.188-1.748L37.219,4.06a1.4,1.4,0,0,0-1.748-.188l-3.1,2a19.615,19.615,0,0,0-2.8-1.16l-.784-3.6A1.4,1.4,0,0,0,27.417,0h-7.94a1.4,1.4,0,0,0-1.369,1.1l-.784,3.6a19.615,19.615,0,0,0-2.8,1.16l-3.1-2a1.4,1.4,0,0,0-1.748.188L4.06,9.675a1.4,1.4,0,0,0-.188,1.748l2,3.1a19.616,19.616,0,0,0-1.16,2.8l-3.6.784A1.4,1.4,0,0,0,0,19.477v7.94a1.4,1.4,0,0,0,1.1,1.369l3.6.784a19.615,19.615,0,0,0,1.16,2.8l-2,3.1a1.4,1.4,0,0,0,.188,1.748l5.615,5.615a1.4,1.4,0,0,0,1.748.188l3.1-2a19.616,19.616,0,0,0,2.8,1.16l.784,3.6a1.4,1.4,0,0,0,1.369,1.1h7.94a1.4,1.4,0,0,0,1.369-1.1l.784-3.6a19.616,19.616,0,0,0,2.8-1.16l3.1,2a1.4,1.4,0,0,0,1.748-.188l5.615-5.615a1.4,1.4,0,0,0,.188-1.748l-2-3.1a19.615,19.615,0,0,0,1.16-2.8l3.6-.784a1.4,1.4,0,0,0,1.1-1.369v-7.94A1.4,1.4,0,0,0,45.791,18.108ZM31.854,23.447a8.407,8.407,0,1,1-8.407-8.407A8.417,8.417,0,0,1,31.854,23.447Zm0,0" transform="translate(0 0)" fill="#f29549"/>
</svg>
