<svg id="email" xmlns="http://www.w3.org/2000/svg" width="50.458" height="42.377" viewBox="0 0 50.458 42.377">
  <path id="Path_514" data-name="Path 514" d="M18.429,75.394c0-11.133.01-12.509,0-12.514s-.323,0-4.191,0a1.508,1.508,0,0,1-1.523-1.41,1.478,1.478,0,0,1,1.476-1.546c3.909,0,4.218,0,4.238,0s0-1.259,0-10.937A1.479,1.479,0,0,1,19.907,47.5H36.564a21.188,21.188,0,1,0,0,29.368H19.907a1.479,1.479,0,0,1-1.478-1.478Zm-5.814-21.78h2.319a1.508,1.508,0,0,1,1.523,1.41,1.478,1.478,0,0,1-1.476,1.546H12.661a1.508,1.508,0,0,1-1.523-1.41A1.478,1.478,0,0,1,12.614,53.614Zm1.577,15.571H9.507a1.508,1.508,0,0,1-1.523-1.41,1.478,1.478,0,0,1,1.476-1.546h4.684a1.508,1.508,0,0,1,1.523,1.41A1.478,1.478,0,0,1,14.191,69.185Z" transform="translate(0 -41)" fill="#f29549"/>
  <path id="Path_515" data-name="Path 515" d="M261.4,137H236.212l12.777,9.851Z" transform="translate(-212.933 -127.539)" fill="#f29549"/>
  <path id="Path_516" data-name="Path 516" d="M232.6,169.937a1.478,1.478,0,0,1-1.822.013L217,159.325v19.7a1.478,1.478,0,0,0,1.478,1.478h26.116a1.478,1.478,0,0,0,1.478-1.478V159.244Z" transform="translate(-195.615 -147.591)" fill="#f29549"/>
</svg>
