<svg id="people" xmlns="http://www.w3.org/2000/svg" width="52.055" height="44.157" viewBox="0 0 52.055 44.157">
  <g id="Group_2" data-name="Group 2" transform="translate(40.515 23.84)">
    <g id="Group_1" data-name="Group 1">
      <path id="Path_517" data-name="Path 517" d="M402.52,273.32h-4.026a10.472,10.472,0,0,1,.634,3.6v15.215a4.486,4.486,0,0,1-.259,1.5h6.655a4.514,4.514,0,0,0,4.509-4.509v-8.294A7.523,7.523,0,0,0,402.52,273.32Z" transform="translate(-398.494 -273.32)" fill="#f29549"/>
    </g>
  </g>
  <g id="Group_4" data-name="Group 4" transform="translate(0 23.84)">
    <g id="Group_3" data-name="Group 3">
      <path id="Path_518" data-name="Path 518" d="M10.906,276.921a10.472,10.472,0,0,1,.635-3.6H7.514A7.523,7.523,0,0,0,0,280.835v8.294a4.514,4.514,0,0,0,4.509,4.509h6.656a4.488,4.488,0,0,1-.259-1.5Z" transform="translate(0 -273.321)" fill="#f29549"/>
    </g>
  </g>
  <g id="Group_6" data-name="Group 6" transform="translate(13.911 19.925)">
    <g id="Group_5" data-name="Group 5">
      <path id="Path_519" data-name="Path 519" d="M153.547,234.815h-9.2a7.523,7.523,0,0,0-7.514,7.514v15.215a1.5,1.5,0,0,0,1.5,1.5h21.226a1.5,1.5,0,0,0,1.5-1.5V242.329A7.523,7.523,0,0,0,153.547,234.815Z" transform="translate(-136.829 -234.815)" fill="#f29549"/>
    </g>
  </g>
  <g id="Group_8" data-name="Group 8" transform="translate(16.99 0)">
    <g id="Group_7" data-name="Group 7">
      <path id="Path_520" data-name="Path 520" d="M176.151,38.84a9.036,9.036,0,1,0,9.037,9.037A9.047,9.047,0,0,0,176.151,38.84Z" transform="translate(-167.114 -38.84)" fill="#f29549"/>
    </g>
  </g>
  <g id="Group_10" data-name="Group 10" transform="translate(3.4 8.423)">
    <g id="Group_9" data-name="Group 9">
      <path id="Path_521" data-name="Path 521" d="M40.2,121.689a6.755,6.755,0,1,0,6.759,6.759A6.766,6.766,0,0,0,40.2,121.689Z" transform="translate(-33.443 -121.689)" fill="#f29549"/>
    </g>
  </g>
  <g id="Group_12" data-name="Group 12" transform="translate(35.138 8.423)">
    <g id="Group_11" data-name="Group 11">
      <path id="Path_522" data-name="Path 522" d="M352.366,121.689a6.759,6.759,0,1,0,6.759,6.759A6.766,6.766,0,0,0,352.366,121.689Z" transform="translate(-345.607 -121.689)" fill="#f29549"/>
    </g>
  </g>
</svg>
