<svg id="briefcase_1_" data-name="briefcase (1)" xmlns="http://www.w3.org/2000/svg" width="49.907" height="44.034" viewBox="0 0 49.907 44.034">
  <path id="Path_511" data-name="Path 511" d="M42.441,149.128a27.546,27.546,0,0,1-11.309,4.867,6.241,6.241,0,0,1-12.358,0,27.546,27.546,0,0,1-11.309-4.867C2.651,145.517,0,140.678,0,135.5v26.562a7.209,7.209,0,0,0,7.2,7.2h35.5a7.209,7.209,0,0,0,7.2-7.2V135.5C49.907,140.678,47.255,145.517,42.441,149.128Z" transform="translate(0 -125.229)" fill="#f29549"/>
  <path id="Path_512" data-name="Path 512" d="M45.787,55.891V53.235a1.462,1.462,0,0,1,1.462-1.462h9.559a1.462,1.462,0,0,1,1.462,1.462v2.656c9.116-1.979,15.787-8.176,15.787-15.495V38.934H62.3V36.029a5.91,5.91,0,0,0-5.9-5.9H47.662a5.91,5.91,0,0,0-5.9,5.9v2.905H30V40.4C30,47.715,36.671,53.912,45.787,55.891ZM44.682,36.029a2.983,2.983,0,0,1,2.979-2.979H56.4a2.983,2.983,0,0,1,2.979,2.979v2.905H44.682V36.029Z" transform="translate(-27.076 -30.125)" fill="#f29549"/>
  <path id="Path_513" data-name="Path 513" d="M228.6,282.215h-6.635v3.318a3.318,3.318,0,0,0,6.635,0Z" transform="translate(-200.329 -257.643)" fill="#f29549"/>
</svg>
