<svg id="agreement" xmlns="http://www.w3.org/2000/svg" width="60.083" height="43.437" viewBox="0 0 60.083 43.437">
  <path id="Path_506" data-name="Path 506" d="M60.083,74.043V92.231S56.19,93,55.388,93.1s-3.311.912-5.132-.838C47.449,89.57,37.473,79.649,37.473,79.649a3.792,3.792,0,0,0-4.482-.229c-2.535,1.336-6.293,3.294-7.863,4.057A3.612,3.612,0,0,1,19.7,80.642a3.693,3.693,0,0,1,2.245-3.224c3.579-2.17,11.123-6.4,14.265-8.073,1.91-1.016,3.286-1.1,5.908,1.106,3.229,2.716,6.1,5.191,6.1,5.191a2.986,2.986,0,0,0,2.432.467C54.325,75.333,60.083,74.043,60.083,74.043Zm-39.7,30.817a3.177,3.177,0,0,0-3.81-4.393,3.277,3.277,0,0,0-.692-3.235,3.353,3.353,0,0,0-3.206-.811,3.274,3.274,0,0,0-.694-3.231,3.62,3.62,0,0,0-5.068.133c-1.482,1.422-2.431,4-1.108,5.514s2.837.591,3.994.327c-.322,1.147-1.286,2.215-.1,3.717s2.837.591,3.995.33c-.323,1.143-1.245,2.317-.1,3.71s3.039.653,4.285.265c-.481,1.236-1.51,2.569-.188,4.063s4.372.808,5.862-.614a3.554,3.554,0,0,0,.322-5.024A3.385,3.385,0,0,0,20.378,104.861Zm27.2-9.462c-10.775-10.775-5.707-5.7-11.505-11.516a3.777,3.777,0,0,0-4.039-.727c-1.612.706-3.688,1.669-5.25,2.4a8.663,8.663,0,0,1-3.531,1.175,5.991,5.991,0,0,1-3.166-11.088c2.394-1.657,7.905-4.588,7.905-4.588a6.918,6.918,0,0,0-5.357-2.127c-3.677,0-11.358,5.032-11.358,5.032a6,6,0,0,1-5.286.139L0,72.017V92.829s1.71.495,3.246,1.122a6.844,6.844,0,0,1,1.683-2.658,6.625,6.625,0,0,1,9.092-.065,5.737,5.737,0,0,1,1.435,2.549,5.806,5.806,0,0,1,2.461,1.5,5.725,5.725,0,0,1,1.437,2.544,5.854,5.854,0,0,1,3.98,4.289,5.89,5.89,0,0,1,2.567,1.539,6.056,6.056,0,0,1,1.588,5.246.009.009,0,0,1,.009,0c.023.03.863.967,1.388,1.5a2.641,2.641,0,1,0,3.735-3.735c-.037-.037-3.706-3.875-3.411-4.172s4.968,4.569,5.055,4.658A2.639,2.639,0,0,0,38,103.413c-.05-.048-.261-.25-.339-.33,0,0-4.635-4.129-4.282-4.482s6.114,5.018,6.124,5.018a2.607,2.607,0,0,0,3.755-3.6c-.018-.055-4.388-4.621-4.047-4.965s4.67,4.1,4.679,4.113a2.641,2.641,0,0,0,3.733-3.737Z" transform="translate(0 -68.657)" fill="#f29549"/>
</svg>
