<svg xmlns="http://www.w3.org/2000/svg" width="195.937" height="79.658" viewBox="0 0 195.937 79.658">
  <g id="Group_220" data-name="Group 220" transform="translate(-1122.127 -1171.255)">
    <path id="Path_1110" data-name="Path 1110" d="M1238.012,73.813a5.945,5.945,0,0,1-.952-3.606V64.979A5.982,5.982,0,0,1,1238,61.33a4.865,4.865,0,0,1,6.292-.186,4.744,4.744,0,0,1,.9,3.127V65.5h-2.563V64.255a7.969,7.969,0,0,0-.074-1.218,1.207,1.207,0,0,0-.372-.723,1.314,1.314,0,0,0-.931-.282,1.261,1.261,0,0,0-1.4,1.1,6.561,6.561,0,0,0-.1,1.292v6.345a3.724,3.724,0,0,0,.324,1.8,1.25,1.25,0,0,0,1.175.532,1.276,1.276,0,0,0,.915-.287,1.361,1.361,0,0,0,.378-.771,7.967,7.967,0,0,0,.085-1.271V69.462h2.563v1.175a5.317,5.317,0,0,1-.883,3.287,3.636,3.636,0,0,1-3.074,1.165A3.762,3.762,0,0,1,1238.012,73.813Z" transform="translate(-33.38 1134.875)" fill="#ce5959"/>
    <path id="Path_1111" data-name="Path 1111" d="M1258.139,73.889a5.618,5.618,0,0,1-.979-3.569V64.848a5.486,5.486,0,0,1,.979-3.526,5.021,5.021,0,0,1,6.494,0,5.369,5.369,0,0,1,.952,3.526v5.473a5.609,5.609,0,0,1-.984,3.564,4.871,4.871,0,0,1-6.462.005Zm4.446-1.308a3.414,3.414,0,0,0,.308-1.628V64.209a3.457,3.457,0,0,0-.3-1.6,1.245,1.245,0,0,0-1.2-.532,1.271,1.271,0,0,0-1.213.532,3.372,3.372,0,0,0-.308,1.6v6.744a3.479,3.479,0,0,0,.308,1.628,1.261,1.261,0,0,0,1.213.532,1.234,1.234,0,0,0,1.175-.532Z" transform="translate(-40.911 1134.851)" fill="#ce5959"/>
    <path id="Path_1112" data-name="Path 1112" d="M1278.586,60.38h2.766l2.08,10.148,2.127-10.148h2.7l.271,14.653h-1.989l-.218-10.185-2.08,10.185h-1.6l-2.127-10.217-.2,10.217h-2.005Z" transform="translate(-48.631 1134.734)" fill="#ce5959"/>
    <path id="Path_1113" data-name="Path 1113" d="M1303.321,60.38h4.3q3.723,0,3.723,4.159,0,3.984-3.925,3.978h-1.463v6.515H1303.3Zm3.691,6.26a1.835,1.835,0,0,0,1.463-.463,2.659,2.659,0,0,0,.378-1.654,5.593,5.593,0,0,0-.122-1.33,1.154,1.154,0,0,0-.532-.7,2.421,2.421,0,0,0-1.2-.234h-1.032V66.64Z" transform="translate(-58.318 1134.734)" fill="#ce5959"/>
    <path id="Path_1114" data-name="Path 1114" d="M1323.075,60.38h2.851l2.925,14.653h-2.473l-.58-3.383h-2.532l-.6,3.383h-2.51Zm2.441,9.574-.995-6.148-.995,6.148Z" transform="translate(-64.574 1134.734)" fill="#ce5959"/>
    <path id="Path_1115" data-name="Path 1115" d="M1341,60.38h1.862l3.563,8.356V60.38h2.2V75.033h-1.776l-3.579-8.755v8.755H1341Z" transform="translate(-72.56 1134.734)" fill="#ce5959"/>
    <path id="Path_1116" data-name="Path 1116" d="M1362.438,69.462l-2.968-9.042h2.495l1.808,5.808,1.7-5.808h2.441l-2.931,9.042v5.59h-2.548Z" transform="translate(-49.852 1134.715)" fill="#ce5959"/>
    <path id="Path_1117" data-name="Path 1117" d="M1241.95,100v.766h-2.17v5.952h-.91v-5.973h-2.181V100Z" transform="translate(-33.612 1116.187)" fill="#ce5959"/>
    <path id="Path_1118" data-name="Path 1118" d="M1253.8,106.678h-.723a.33.33,0,0,1-.2-.059.43.43,0,0,1-.112-.16l-.628-1.6h-3.016l-.628,1.6a.384.384,0,0,1-.112.154.3.3,0,0,1-.2.064h-.7l2.659-6.717h.92Zm-4.4-2.494h2.505l-1.064-2.734a5.32,5.32,0,0,1-.2-.633c-.032.133-.069.25-.1.356s-.064.2-.1.282Z" transform="translate(-37.544 1116.206)" fill="#ce5959"/>
    <path id="Path_1119" data-name="Path 1119" d="M1265,106a4.734,4.734,0,0,0,.5,0,2.583,2.583,0,0,0,.431-.08,2.615,2.615,0,0,0,.378-.122c.117-.048.239-.106.356-.165v-1.484h-1.037a.2.2,0,0,1-.144-.048.176.176,0,0,1-.053-.128v-.532h2.058v2.574a3.565,3.565,0,0,1-.532.319,3.347,3.347,0,0,1-.585.229,4.15,4.15,0,0,1-.67.138,6.877,6.877,0,0,1-.771.043,3.514,3.514,0,0,1-1.34-.25,3.053,3.053,0,0,1-1.064-.7,3.19,3.19,0,0,1-.691-1.064,3.928,3.928,0,0,1-.245-1.393,3.806,3.806,0,0,1,.245-1.4,3,3,0,0,1,.686-1.064,3.038,3.038,0,0,1,1.064-.7,3.861,3.861,0,0,1,1.42-.25,4.58,4.58,0,0,1,.739.059,3.3,3.3,0,0,1,.638.17,3.184,3.184,0,0,1,.532.266,3.34,3.34,0,0,1,.463.356l-.261.41a.234.234,0,0,1-.2.128.3.3,0,0,1-.165-.053l-.266-.16a2.661,2.661,0,0,0-.351-.181,2.512,2.512,0,0,0-.495-.144,3.048,3.048,0,0,0-.67-.064,2.734,2.734,0,0,0-1.027.186,2.063,2.063,0,0,0-.782.532,2.324,2.324,0,0,0-.5.83,3.659,3.659,0,0,0,0,2.239,2.406,2.406,0,0,0,.532.846,2.207,2.207,0,0,0,.782.532A2.58,2.58,0,0,0,1265,106Z" transform="translate(-42.904 1116.225)" fill="#ce5959"/>
    <path id="Path_1120" data-name="Path 1120" d="M1283.12,105.93h2.909v.766h-3.819V100h.91Z" transform="translate(-50.938 1116.187)" fill="#ce5959"/>
    <path id="Path_1121" data-name="Path 1121" d="M1294.26,106.7h-.909V100h.909Z" transform="translate(-55.517 1116.187)" fill="#ce5959"/>
    <path id="Path_1122" data-name="Path 1122" d="M1300.864,99.949a.446.446,0,0,1,.133.122l3.893,5.063V99.89h.8v6.717h-.457a.367.367,0,0,1-.181-.037.532.532,0,0,1-.144-.128l-3.888-5.058v5.223h-.8V99.949h.468a.394.394,0,0,1,.176,0Z" transform="translate(-57.504 1116.238)" fill="#ce5959"/>
    <path id="Path_1123" data-name="Path 1123" d="M1319.429,100v.739h-3.234v2.234h2.606v.713h-2.606v2.292h3.223v.739h-4.138V100Z" transform="translate(-63.351 1116.187)" fill="#ce5959"/>
    <path id="Path_1124" data-name="Path 1124" d="M1141.6,18.967l40.385,11.472V70.622L1141.6,59.144V18.967M1139,15.52V61.085l45.565,12.946V28.466Z" transform="translate(8.077 1155.735)" fill="#ce5959"/>
    <path id="Path_1125" data-name="Path 1125" d="M1144.82,113.791l-45.56-12.951V55.28l45.56,12.946Z" transform="translate(22.867 1137.122)" fill="#ce5959"/>
    <path id="Path_1126" data-name="Path 1126" d="M1121.152,18.435l39.89,11.323L1144.06,46.709,1104.2,35.38l16.951-16.945m-.76-2.915L1099.25,36.667l45.56,12.946,21.147-21.147Z" transform="translate(25.54 1155.735)" fill="#ce5959"/>
    <path id="Path_1127" data-name="Path 1127" d="M1189.74,139.465l18.583-18.583L1189.74,115.6Z" transform="translate(-14.292 1108.884)" fill="#ce5959"/>
  </g>
</svg>
