<svg xmlns="http://www.w3.org/2000/svg" width="115.972" height="79.892" viewBox="0 0 115.972 79.892">
  <g id="Group_221" data-name="Group 221" transform="translate(-937.553 -1166.771)">
    <path id="Path_1135" data-name="Path 1135" d="M818.084,127.173a2.66,2.66,0,0,1,.6,1.718,2.712,2.712,0,0,1-.92,2.17,3.957,3.957,0,0,1-2.659.792h-4.67V120.992h4.558a3.909,3.909,0,0,1,2.537.723,2.489,2.489,0,0,1,.888,2.037,2.558,2.558,0,0,1-.532,1.665,2.526,2.526,0,0,1-1.4.851,2.617,2.617,0,0,1,1.6.9Zm-5.484-1.643h1.963a1.872,1.872,0,0,0,1.239-.362,1.3,1.3,0,0,0,.426-1.064,1.33,1.33,0,0,0-.415-1.064,1.909,1.909,0,0,0-1.282-.372H812.6Zm3.393,4.175a1.351,1.351,0,0,0,.463-1.106,1.367,1.367,0,0,0-.468-1.117,2.037,2.037,0,0,0-1.335-.394H812.6v2.994h2.069a2.058,2.058,0,0,0,1.324-.378Z" transform="translate(127.123 1106.364)" fill="#403449"/>
    <path id="Path_1136" data-name="Path 1136" d="M837.385,131.852l-2.542-4.255h-.957v4.255H831.71V120.991h4.149a4.1,4.1,0,0,1,2.893.925,3.473,3.473,0,0,1,.309,4.5,3.367,3.367,0,0,1-1.984,1.106l2.718,4.351Zm-3.5-5.739h1.787q1.867,0,1.867-1.649a1.6,1.6,0,0,0-.452-1.223,1.952,1.952,0,0,0-1.415-.441h-1.787Z" transform="translate(119.104 1106.365)" fill="#403449"/>
    <path id="Path_1137" data-name="Path 1137" d="M858.446,129.754H854.08l-.771,2.191H851l4.01-10.765h2.484l3.994,10.765h-2.3Zm-.59-1.649-1.6-4.6-1.6,4.6Z" transform="translate(112.057 1106.272)" fill="#403449"/>
    <path id="Path_1138" data-name="Path 1138" d="M884.994,131.861h-2.2l-4.872-7.4v7.4H875.75V121h2.175l4.872,7.446V121h2.175Z" transform="translate(102.64 1106.356)" fill="#403449"/>
    <path id="Path_1139" data-name="Path 1139" d="M908.648,129.253a4.723,4.723,0,0,1-1.968,1.92,6.42,6.42,0,0,1-3.064.686H899.75V121h3.856a6.542,6.542,0,0,1,3.064.67,4.649,4.649,0,0,1,1.968,1.9,6.383,6.383,0,0,1,0,5.712Zm-2.495-.261a3.978,3.978,0,0,0,0-5.2,3.755,3.755,0,0,0-2.718-.925H901.92v7.053h1.516a3.755,3.755,0,0,0,2.718-.941Z" transform="translate(93.643 1106.358)" fill="#403449"/>
    <path id="Path_1140" data-name="Path 1140" d="M867.506,7.09s28.077,10.59,27.482,25.939h0V58.974s-28.072-10.605-27.476-25.945h0Z" transform="translate(107.406 1159.681)" fill="#403449"/>
    <path id="Path_1141" data-name="Path 1141" d="M966.21,80.286a38.449,38.449,0,0,1,17.834-6.574V65.59a36.561,36.561,0,0,0-17.834,14.7Z" transform="translate(69.481 1132.295)" fill="#403449"/>
    <path id="Path_1142" data-name="Path 1142" d="M944.258,60.636a38.092,38.092,0,0,1,21.025-18.844V18.39S925.3,33.49,926.148,55.334h0V92.272s1.787-.675,4.59-1.941a34.932,34.932,0,0,1,.122-3.569,38.4,38.4,0,0,1,13.4-26.125Z" transform="translate(86.643 1154.391)" fill="#403449"/>
    <path id="Path_1143" data-name="Path 1143" d="M946.858,116.963a38.488,38.488,0,0,1,1.393-7.563,35.673,35.673,0,0,0-8.345,20.184c-.053.7-.085,1.4-.106,2.127,2.276-1.1,4.914-2.452,7.691-4.053a38.227,38.227,0,0,1-.633-10.7Z" transform="translate(78.474 1111.786)" fill="#403449"/>
    <path id="Path_1144" data-name="Path 1144" d="M955.95,106.072a36.539,36.539,0,0,0,.489,9.685c10.93-6.537,23.205-16.637,22.732-28.843h0V85.85a35.9,35.9,0,0,0-20.785,9.707,36.48,36.48,0,0,0-2.436,10.515Z" transform="translate(73.937 1122.811)" fill="#403449"/>
  </g>
</svg>
