<svg xmlns="http://www.w3.org/2000/svg" width="101.789" height="94.183" viewBox="0 0 101.789 94.183">
  <g id="Group_222" data-name="Group 222" transform="translate(-779.538 -1163.819)">
    <path id="Path_1091" data-name="Path 1091" d="M616.351,1.54H571.44L549,40.441l22.461,38.9h44.911l22.461-38.9Zm-1.984,73.77-.165.3H573.594L553.287,40.441,573.594,5.274h.335l4.606,7.978,4.9-8.51h.665l-5.223,9.042,2.463,4.255,7.675-13.286h.862L581.752,18.8l2.308,3.994L594.485,4.715H595.8L584.7,23.932l2.09,3.617,13.164-22.8h1.723l-14.025,24.29,1.9,3.292L605.511,4.752h2.128l-17,29.476,1.659,2.872L610.952,4.752h2.585L593.581,39.324l1.6,2.766L615.17,7.46l1.723,2.984L596.905,45.063Z" transform="translate(230.538 1162.279)" fill="#f6b217"/>
    <path id="Path_1094" data-name="Path 1094" d="M589.727,170.679h-3.548l-.7,1.654H584.11l3.191-7.143h1.3l3.223,7.143h-1.393Zm-.436-1.064-1.346-3.117-1.34,3.117Z" transform="translate(212.23 1085.669)" fill="#f6b217"/>
    <path id="Path_1095" data-name="Path 1095" d="M610.486,165.19v7.143h-1.112l-3.936-4.835v4.835H604.12V165.19h1.1l3.936,4.835V165.19Z" transform="translate(204.618 1085.669)" fill="#f6b217"/>
    <path id="Path_1096" data-name="Path 1096" d="M623.53,165.189h3.122a4.478,4.478,0,0,1,2.032.447,3.234,3.234,0,0,1,1.372,1.255,3.781,3.781,0,0,1,0,3.723,3.234,3.234,0,0,1-1.372,1.255,4.478,4.478,0,0,1-2.032.447H623.53Zm3.064,6.021a2.989,2.989,0,0,0,1.378-.3,2.128,2.128,0,0,0,.92-.856,2.765,2.765,0,0,0,0-2.58,2.127,2.127,0,0,0-.92-.856,2.989,2.989,0,0,0-1.378-.3h-1.75v4.9Z" transform="translate(197.354 1085.67)" fill="#f6b217"/>
    <path id="Path_1097" data-name="Path 1097" d="M658.7,165.19v7.143h-1.064L653.7,167.5v4.835H652.38V165.19h1.1l3.936,4.835V165.19Z" transform="translate(186.45 1085.669)" fill="#f6b217"/>
    <path id="Path_1098" data-name="Path 1098" d="M675.443,170.679h-3.569l-.707,1.654H669.8l3.191-7.143H674.3l3.223,7.143h-1.388ZM675,169.615l-1.346-3.117-1.335,3.117Z" transform="translate(179.99 1085.669)" fill="#f6b217"/>
    <path id="Path_1099" data-name="Path 1099" d="M696.458,172.333V167.6l-2.346,3.915h-.59l-2.346-3.856v4.675H689.9V165.19h1.117l2.835,4.734,2.787-4.734h1.09v7.143Z" transform="translate(172.436 1085.669)" fill="#f6b217"/>
    <path id="Path_1100" data-name="Path 1100" d="M717.406,171.221v1.112H712.05V165.19h5.212V166.3h-3.888v1.856h3.436v1.1h-3.446v1.968Z" transform="translate(163.921 1085.669)" fill="#f6b217"/>
  </g>
</svg>
