<svg xmlns="http://www.w3.org/2000/svg" width="161.307" height="84.934" viewBox="0 0 161.307 84.934">
  <g id="Group_223" data-name="Group 223" transform="translate(-566.563 -1163)">
    <rect id="Rectangle_215" data-name="Rectangle 215" width="16.142" height="16.142" rx="8.071" transform="translate(582.918 1188.934)" fill="#0064aa"/>
    <path id="Path_1082" data-name="Path 1082" d="M369.793,23.354A23.4,23.4,0,0,0,346.444,0h0A23.4,23.4,0,0,0,323.09,23.354h0v34.13s46.7-5.2,46.709-34.125Z" transform="translate(311.791 1163)" fill="#0064aa"/>
    <path id="Path_1083" data-name="Path 1083" d="M253,108.243h0a16.3,16.3,0,0,0,16.249,16.249h0A16.3,16.3,0,0,0,285.5,108.243h0V84.5S253,88.122,253,108.243Zm16.249,4.255a4.271,4.271,0,1,1,0,.016Z" transform="translate(313.563 1123.443)" fill="#0064aa"/>
    <path id="Path_1084" data-name="Path 1084" d="M326.373,131.656a5.148,5.148,0,0,1-2.026-1.936,5.686,5.686,0,0,1,0-5.617,5.265,5.265,0,0,1,2.042-1.952,5.983,5.983,0,0,1,2.9-.7,6.058,6.058,0,0,1,2.383.452,4.877,4.877,0,0,1,1.824,1.324l-1.276,1.2a3.723,3.723,0,0,0-2.84-1.245,3.978,3.978,0,0,0-1.957.479,3.452,3.452,0,0,0-1.351,1.33,4.074,4.074,0,0,0,0,3.851,3.452,3.452,0,0,0,1.351,1.33,3.978,3.978,0,0,0,1.957.479,3.723,3.723,0,0,0,2.84-1.261L333.5,130.6a4.915,4.915,0,0,1-1.83,1.324,6.132,6.132,0,0,1-2.393.452A5.941,5.941,0,0,1,326.373,131.656Z" transform="translate(310.317 1106.146)" fill="#0064aa"/>
    <path id="Path_1085" data-name="Path 1085" d="M346.712,131.648a5.181,5.181,0,0,1-2.048-1.957,5.638,5.638,0,0,1,0-5.6,5.255,5.255,0,0,1,2.048-1.957,6.457,6.457,0,0,1,5.851,0,5.244,5.244,0,0,1,2.048,1.952,5.67,5.67,0,0,1-.011,5.627,5.191,5.191,0,0,1-2.048,1.947,6.414,6.414,0,0,1-5.851,0Zm4.84-1.5a3.462,3.462,0,0,0,1.335-1.335,4.053,4.053,0,0,0,0-3.84,3.462,3.462,0,0,0-1.335-1.335,4.058,4.058,0,0,0-3.824,0,3.462,3.462,0,0,0-1.335,1.335,4.053,4.053,0,0,0,0,3.84,3.463,3.463,0,0,0,1.335,1.335A4.058,4.058,0,0,0,351.552,130.149Z" transform="translate(302.733 1106.154)" fill="#0064aa"/>
    <path id="Path_1086" data-name="Path 1086" d="M379.144,132.351v-7.042l-3.489,5.851h-.883l-3.489-5.734v6.952H369.4V121.74h1.622l4.2,7.053,4.143-7.042h1.628v10.637Z" transform="translate(293.162 1106.01)" fill="#0064aa"/>
    <path id="Path_1087" data-name="Path 1087" d="M403.4,122.157a3.5,3.5,0,0,1,1.569,1.3,3.984,3.984,0,0,1,0,4.032,3.489,3.489,0,0,1-1.569,1.314,5.85,5.85,0,0,1-2.4.452h-2.4v3.069H396.62V121.689h4.372a5.851,5.851,0,0,1,2.4.468Zm-.532,4.888a2.17,2.17,0,0,0,0-3.127,3.021,3.021,0,0,0-1.957-.532H398.6V127.6h2.308a3.053,3.053,0,0,0,1.952-.558Z" transform="translate(282.821 1106.034)" fill="#0064aa"/>
    <path id="Path_1088" data-name="Path 1088" d="M421.594,129.865h-5.319l-1.064,2.463H413.18l4.787-10.637h1.947l4.787,10.637h-2.042Zm-.649-1.548-2.01-4.643-1.989,4.643Z" transform="translate(276.704 1106.033)" fill="#0064aa"/>
    <path id="Path_1089" data-name="Path 1089" d="M446.87,121.71v10.637h-1.622l-5.851-7.2v7.2H437.44V121.71h1.628l5.851,7.2v-7.2Z" transform="translate(267.492 1106.024)" fill="#0064aa"/>
    <path id="Path_1090" data-name="Path 1090" d="M463.743,128.578v3.75H461.77V128.6l-4.17-6.914h2.127l3.111,5.175,3.143-5.175h1.936Z" transform="translate(259.952 1106.033)" fill="#0064aa"/>
  </g>
</svg>
