<svg xmlns="http://www.w3.org/2000/svg" width="78.78" height="94.438" viewBox="0 0 78.78 94.438">
  <g id="Group_224" data-name="Group 224" transform="translate(-432 -1164.926)">
    <path id="Path_1101" data-name="Path 1101" d="M22.73,3.62,36.654,17.544H75.5V56.387L89.421,70.311V3.62Z" transform="translate(421.359 1161.305)" fill="#ce5959"/>
    <path id="Path_1102" data-name="Path 1102" d="M.73,29.8V94.262H65.2V68.642L26.371,29.816ZM52.917,84.838H10.937V41.485H13.9v40.39H52.917Z" transform="translate(431.658 1149.05)" fill="#ce5959"/>
    <path id="Path_1103" data-name="Path 1103" d="M5.579,172.992a.218.218,0,0,1,.149.064l.388.426a3.16,3.16,0,0,1-1.09.808,3.659,3.659,0,0,1-1.542.293,3.675,3.675,0,0,1-1.436-.271,3.191,3.191,0,0,1-1.1-.766,3.452,3.452,0,0,1-.7-1.175A4.441,4.441,0,0,1,0,170.848a4.255,4.255,0,0,1,.266-1.516,3.484,3.484,0,0,1,.755-1.181,3.292,3.292,0,0,1,1.159-.766,3.867,3.867,0,0,1,1.489-.277,3.585,3.585,0,0,1,1.393.25,3.58,3.58,0,0,1,1.064.681l-.324.452a.3.3,0,0,1-.08.085.234.234,0,0,1-.133.032.255.255,0,0,1-.138-.048l-.176-.117-.239-.154a2.4,2.4,0,0,0-.356-.176,3.136,3.136,0,0,0-.436-.122,3.154,3.154,0,0,0-.58-.048,2.792,2.792,0,0,0-1.064.2,2.319,2.319,0,0,0-.84.574,2.6,2.6,0,0,0-.532.91,3.4,3.4,0,0,0-.2,1.2,3.462,3.462,0,0,0,.2,1.218,2.659,2.659,0,0,0,.532.9,2.229,2.229,0,0,0,.8.564,2.521,2.521,0,0,0,1,.2,4.873,4.873,0,0,0,.59-.037,2.628,2.628,0,0,0,.479-.122,1.894,1.894,0,0,0,.415-.207,2.661,2.661,0,0,0,.383-.3A.282.282,0,0,1,5.579,172.992Z" transform="translate(432.001 1084.771)" fill="#ce5959"/>
    <path id="Path_1104" data-name="Path 1104" d="M25.157,170.849a4.255,4.255,0,0,1-.266,1.521,3.521,3.521,0,0,1-.734,1.181,3.367,3.367,0,0,1-1.144.771,4.106,4.106,0,0,1-2.936,0,3.324,3.324,0,0,1-1.867-1.952,4.478,4.478,0,0,1,0-3.01,3.431,3.431,0,0,1,.734-1.186,3.346,3.346,0,0,1,1.159-.787,4.032,4.032,0,0,1,2.936,0,3.367,3.367,0,0,1,1.144.771,3.6,3.6,0,0,1,.707,1.186A4.255,4.255,0,0,1,25.157,170.849Zm-1.016,0a3.723,3.723,0,0,0-.186-1.207,2.548,2.548,0,0,0-.532-.9,2.271,2.271,0,0,0-.819-.569,2.93,2.93,0,0,0-2.127,0,2.271,2.271,0,0,0-.819.569,2.558,2.558,0,0,0-.532.9,4.122,4.122,0,0,0,0,2.415,2.606,2.606,0,0,0,.532.9,2.329,2.329,0,0,0,.819.564,3,3,0,0,0,2.127,0,2.329,2.329,0,0,0,.819-.564,2.6,2.6,0,0,0,.532-.9,3.723,3.723,0,0,0,.186-1.207Z" transform="translate(423.598 1084.771)" fill="#ce5959"/>
    <path id="Path_1105" data-name="Path 1105" d="M42.553,172.183c.032.09.069.181.1.277.037-.1.069-.186.106-.277s.08-.17.128-.261l2.473-4.494a.356.356,0,0,1,.138-.144.706.706,0,0,1,.207,0h.729v7.281h-.867v-5.6a1.972,1.972,0,0,1,0-.25l-2.505,4.569a.394.394,0,0,1-.356.229h-.144a.388.388,0,0,1-.356-.229l-2.542-4.569a.852.852,0,0,0,.027.261.69.69,0,0,1,0,.234v5.356H38.83v-7.3h.729a.707.707,0,0,1,.207,0,.351.351,0,0,1,.133.144l2.526,4.5A1.905,1.905,0,0,1,42.553,172.183Z" transform="translate(413.822 1084.702)" fill="#ce5959"/>
    <path id="Path_1106" data-name="Path 1106" d="M62.444,171.843v2.729H61.46v-7.3h2.154a4.074,4.074,0,0,1,1.207.16,2.324,2.324,0,0,1,.851.457,1.771,1.771,0,0,1,.5.713,2.479,2.479,0,0,1,.165.931,2.425,2.425,0,0,1-.176.936,1.973,1.973,0,0,1-.532.729,2.564,2.564,0,0,1-.856.479,3.723,3.723,0,0,1-1.17.17Zm0-.787h1.17a2.318,2.318,0,0,0,.75-.112,1.505,1.505,0,0,0,.532-.314,1.287,1.287,0,0,0,.33-.484,1.633,1.633,0,0,0,.112-.617,1.4,1.4,0,0,0-.431-1.09,1.883,1.883,0,0,0-1.3-.394h-1.17Z" transform="translate(403.229 1084.696)" fill="#ce5959"/>
    <path id="Path_1107" data-name="Path 1107" d="M81.73,174.573h-.766a.34.34,0,0,1-.213-.069.4.4,0,0,1-.122-.17l-.686-1.76H76.667l-.66,1.766a.362.362,0,0,1-.122.165.314.314,0,0,1-.213.074H74.88l2.925-7.308h1.005Zm-4.787-2.718h2.728l-1.149-2.973a5.032,5.032,0,0,1-.218-.686q-.053.207-.112.383a2.911,2.911,0,0,1-.106.308Z" transform="translate(396.946 1084.696)" fill="#ce5959"/>
    <path id="Path_1108" data-name="Path 1108" d="M95,167.3a.452.452,0,0,1,.144.133l4.255,5.51V167.27h.867v7.3h-.5a.431.431,0,0,1-.2-.043.463.463,0,0,1-.154-.138l-4.255-5.5v5.686H94.29v-7.3h.532A.473.473,0,0,1,95,167.3Z" transform="translate(387.86 1084.696)" fill="#ce5959"/>
    <path id="Path_1109" data-name="Path 1109" d="M115.654,171.663v2.9h-.995v-2.909l-2.659-4.4h.867a.314.314,0,0,1,.207.064.585.585,0,0,1,.133.165l1.675,2.84c.064.117.122.229.17.335s.085.207.122.314c.037-.106.08-.213.122-.319a2.447,2.447,0,0,1,.17-.33l1.665-2.84a.68.68,0,0,1,.128-.154.277.277,0,0,1,.207-.074h.878Z" transform="translate(379.569 1084.701)" fill="#ce5959"/>
  </g>
</svg>
